<svg preserveAspectRatio="none" width="100%" height="100%" overflow="visible" style="display: block;" viewBox="0 0 9 10.5" fill="none" xmlns="http://www.w3.org/2000/svg">
<g id="Container">
<path id="Icon" d="M3 1V0H6V1H3V1M4 6.5H5V3.5H4V6.5V6.5M4.5 10.5C3.88333 10.5 3.30208 10.3813 2.75625 10.1438C2.21042 9.90625 1.73333 9.58333 1.325 9.175C0.916667 8.76667 0.59375 8.28958 0.35625 7.74375C0.11875 7.19792 0 6.61667 0 6C0 5.38333 0.11875 4.80208 0.35625 4.25625C0.59375 3.71042 0.916667 3.23333 1.325 2.825C1.73333 2.41667 2.21042 2.09375 2.75625 1.85625C3.30208 1.61875 3.88333 1.5 4.5 1.5C5.01667 1.5 5.5125 1.58333 5.9875 1.75C6.4625 1.91667 6.90833 2.15833 7.325 2.475L8.025 1.775L8.725 2.475L8.025 3.175C8.34167 3.59167 8.58333 4.0375 8.75 4.5125C8.91667 4.9875 9 5.48333 9 6C9 6.61667 8.88125 7.19792 8.64375 7.74375C8.40625 8.28958 8.08333 8.76667 7.675 9.175C7.26667 9.58333 6.78958 9.90625 6.24375 10.1438C5.69792 10.3813 5.11667 10.5 4.5 10.5V10.5M4.5 9.5C5.46667 9.5 6.29167 9.15833 6.975 8.475C7.65833 7.79167 8 6.96667 8 6C8 5.03333 7.65833 4.20833 6.975 3.525C6.29167 2.84167 5.46667 2.5 4.5 2.5C3.53333 2.5 2.70833 2.84167 2.025 3.525C1.34167 4.20833 1 5.03333 1 6C1 6.96667 1.34167 7.79167 2.025 8.475C2.70833 9.15833 3.53333 9.5 4.5 9.5V9.5M4.5 6V6V6V6V6V6V6V6V6V6" fill="var(--fill-0, #9CA3AF)"/>
</g>
</svg>
