<svg preserveAspectRatio="none" width="100%" height="100%" overflow="visible" style="display: block;" viewBox="0 0 39.8845 34.2691" fill="none" xmlns="http://www.w3.org/2000/svg">
<g id="Container">
<path id="Icon" d="M26.4384 34.2691L18.6307 26.4615L20.7384 24.3538L26.4384 30.0538L37.7768 18.7154L39.8845 20.823L26.4384 34.2691V34.2691M18.9999 12.9999L34.6922 2.99993H3.30764L18.9999 12.9999V12.9999M18.9999 16.1152L2.99993 5.88446V26.3845C2.99993 26.564 3.05762 26.7114 3.17302 26.8268C3.28841 26.9422 3.43586 26.9999 3.61536 26.9999H13.5499L16.5499 29.9999H3.61536C2.60511 29.9999 1.74998 29.6499 1.04999 28.9499C0.349997 28.2499 0 27.3947 0 26.3845V3.61536C0 2.60511 0.349997 1.74998 1.04999 1.04999C1.74998 0.349997 2.60511 0 3.61536 0H34.3845C35.3947 0 36.2499 0.349997 36.9499 1.04999C37.6499 1.74998 37.9999 2.60511 37.9999 3.61536V12.8923L34.9999 15.8922V5.88446L18.9999 16.1152V16.1152M18.9999 16.4422V16.4422V16.4422V16.4422V16.4422V16.4422V16.4422V16.4422V16.4422V16.4422V16.4422V16.4422V16.4422M18.9999 12.9999V12.9999V12.9999V12.9999V12.9999M18.9999 16.1152V16.1152V16.1152V16.1152V16.1152V16.1152V16.1152V16.1152" fill="var(--fill-0, #D98C5F)"/>
</g>
</svg>
