<svg preserveAspectRatio="none" width="100%" height="100%" overflow="visible" style="display: block;" viewBox="0 0 22.5 22.5" fill="none" xmlns="http://www.w3.org/2000/svg">
<g id="Container">
<path id="Icon" d="M0 22.5V20H2.5V0H15V1.25H20V20H22.5V22.5H17.5V3.75H15V22.5H0V22.5M5 2.5V2.5V20V20V2.5V2.5M10 12.5C10.3542 12.5 10.651 12.3802 10.8906 12.1406C11.1302 11.901 11.25 11.6042 11.25 11.25C11.25 10.8958 11.1302 10.599 10.8906 10.3594C10.651 10.1198 10.3542 10 10 10C9.64583 10 9.34896 10.1198 9.10938 10.3594C8.86979 10.599 8.75 10.8958 8.75 11.25C8.75 11.6042 8.86979 11.901 9.10938 12.1406C9.34896 12.3802 9.64583 12.5 10 12.5V12.5M5 20H12.5V2.5H5V20V20" fill="var(--fill-0, #AF5A3C)"/>
</g>
</svg>
