<svg preserveAspectRatio="none" width="100%" height="100%" overflow="visible" style="display: block;" viewBox="0 0 30.6667 30" fill="none" xmlns="http://www.w3.org/2000/svg">
<g id="Background+Border">
<rect x="1" y="1" width="28.6667" height="28" rx="7" fill="var(--fill-0, #B05B3D)"/>
<rect x="1" y="1" width="28.6667" height="28" rx="7" stroke="var(--stroke-0, #1A1817)" stroke-width="2"/>
<path id="Icon" d="M13.0667 22L11.8 19.8667L9.4 19.3333L9.63333 16.8667L8 15L9.63333 13.1333L9.4 10.6667L11.8 10.1333L13.0667 8L15.3333 8.96667L17.6 8L18.8667 10.1333L21.2667 10.6667L21.0333 13.1333L22.6667 15L21.0333 16.8667L21.2667 19.3333L18.8667 19.8667L17.6 22L15.3333 21.0333L13.0667 22V22M13.6333 20.3L15.3333 19.5667L17.0667 20.3L18 18.7L19.8333 18.2667L19.6667 16.4L20.9 15L19.6667 13.5667L19.8333 11.7L18 11.3L17.0333 9.7L15.3333 10.4333L13.6 9.7L12.6667 11.3L10.8333 11.7L11 13.5667L9.76667 15L11 16.4L10.8333 18.3L12.6667 18.7L13.6333 20.3V20.3M15.3333 15V15V15V15V15V15V15V15V15V15V15V15V15V15V15V15V15V15V15V15V15V15M14.6333 17.3667L18.4 13.6L17.4667 12.6333L14.6333 15.4667L13.2 14.0667L12.2667 15L14.6333 17.3667V17.3667" fill="var(--fill-0, white)"/>
</g>
</svg>
