<svg preserveAspectRatio="none" width="100%" height="100%" overflow="visible" style="display: block;" viewBox="0 0 11.6667 11.6667" fill="none" xmlns="http://www.w3.org/2000/svg">
<g id="Container">
<path id="Icon" d="M4.08333 9.33333H7.29167C7.45694 9.33333 7.61007 9.29201 7.75104 9.20938C7.89201 9.12674 7.99167 9.0125 8.05 8.86667L9.275 6.00833C9.29444 5.95972 9.30903 5.91111 9.31875 5.8625C9.32847 5.81389 9.33333 5.76528 9.33333 5.71667V5.25C9.33333 5.08472 9.27743 4.94618 9.16562 4.83437C9.05382 4.72257 8.91528 4.66667 8.75 4.66667H6.06667L6.41667 2.68333C6.43611 2.58611 6.43125 2.49375 6.40208 2.40625C6.37292 2.31875 6.32431 2.24097 6.25625 2.17292L5.83333 1.75L3.15 4.66667C3.07222 4.74444 3.01389 4.83194 2.975 4.92917C2.93611 5.02639 2.91667 5.13333 2.91667 5.25V8.16667C2.91667 8.4875 3.0309 8.76215 3.25938 8.99063C3.48785 9.2191 3.7625 9.33333 4.08333 9.33333V9.33333M5.83333 11.6667C5.02639 11.6667 4.26806 11.5135 3.55833 11.2073C2.84861 10.901 2.23125 10.4854 1.70625 9.96042C1.18125 9.43542 0.765625 8.81806 0.459375 8.10833C0.153125 7.39861 0 6.64028 0 5.83333C0 5.02639 0.153125 4.26806 0.459375 3.55833C0.765625 2.84861 1.18125 2.23125 1.70625 1.70625C2.23125 1.18125 2.84861 0.765625 3.55833 0.459375C4.26806 0.153125 5.02639 0 5.83333 0C6.64028 0 7.39861 0.153125 8.10833 0.459375C8.81806 0.765625 9.43542 1.18125 9.96042 1.70625C10.4854 2.23125 10.901 2.84861 11.2073 3.55833C11.5135 4.26806 11.6667 5.02639 11.6667 5.83333C11.6667 6.64028 11.5135 7.39861 11.2073 8.10833C10.901 8.81806 10.4854 9.43542 9.96042 9.96042C9.43542 10.4854 8.81806 10.901 8.10833 11.2073C7.39861 11.5135 6.64028 11.6667 5.83333 11.6667V11.6667M5.83333 10.5C7.13611 10.5 8.23958 10.0479 9.14375 9.14375C10.0479 8.23958 10.5 7.13611 10.5 5.83333C10.5 4.53056 10.0479 3.42708 9.14375 2.52292C8.23958 1.61875 7.13611 1.16667 5.83333 1.16667C4.53056 1.16667 3.42708 1.61875 2.52292 2.52292C1.61875 3.42708 1.16667 4.53056 1.16667 5.83333C1.16667 7.13611 1.61875 8.23958 2.52292 9.14375C3.42708 10.0479 4.53056 10.5 5.83333 10.5V10.5M5.83333 5.83333V5.83333V5.83333V5.83333V5.83333V5.83333V5.83333V5.83333V5.83333V5.83333" fill="var(--fill-0, #D98C5F)"/>
</g>
</svg>
