<svg preserveAspectRatio="none" width="100%" height="100%" overflow="visible" style="display: block;" viewBox="0 0 15 13.3333" fill="none" xmlns="http://www.w3.org/2000/svg">
<g id="Container">
<path id="Icon" d="M0 13.3333V11.6667H15V13.3333H0V13.3333M0 1.66667V0H15V1.66667H0V1.66667M1.66667 10C1.20833 10 0.815972 9.83681 0.489583 9.51042C0.163194 9.18403 0 8.79167 0 8.33333V5C0 4.54167 0.163194 4.14931 0.489583 3.82292C0.815972 3.49653 1.20833 3.33333 1.66667 3.33333H13.3333C13.7917 3.33333 14.184 3.49653 14.5104 3.82292C14.8368 4.14931 15 4.54167 15 5V8.33333C15 8.79167 14.8368 9.18403 14.5104 9.51042C14.184 9.83681 13.7917 10 13.3333 10H1.66667V10M1.66667 8.33333H13.3333V8.33333V8.33333V5V5V5H1.66667V5V5V8.33333V8.33333V8.33333V8.33333M1.66667 5V5V5V5V8.33333V8.33333V8.33333V8.33333V8.33333V8.33333V5V5V5V5" fill="var(--fill-0, #9CA3AF)"/>
</g>
</svg>
